<svg version="1.1" xmlns="http://www.w3.org/2000/svg" xmlns:xlink="http://www.w3.org/1999/xlink" stroke-linecap="round" stroke-linejoin="round" stroke-width="0" fill-rule="evenodd" width="2.16536in" height="2.95276in" viewBox="286.18 286.18 2165.36 2952.76" id="LhfPuAg5TSdsx3zWUhN_"><defs><circle cx="0" cy="0" r="30" id="LhfPuAg5TSdsx3zWUhN__pad-13"/><circle cx="0" cy="0" r="115" id="LhfPuAg5TSdsx3zWUhN__pad-14"/><circle cx="0" cy="0" r="28" id="LhfPuAg5TSdsx3zWUhN__pad-15"/><rect x="-19.685" y="-39.37" width="39.37" height="78.74" id="LhfPuAg5TSdsx3zWUhN__pad-17"/><rect x="-20.67" y="-21.26" width="41.34" height="42.52" id="LhfPuAg5TSdsx3zWUhN__pad-18"/><rect x="-19.685" y="-21.655" width="39.37" height="43.31" id="LhfPuAg5TSdsx3zWUhN__pad-19"/><rect x="-21.26" y="-20.67" width="42.52" height="41.34" id="LhfPuAg5TSdsx3zWUhN__pad-20"/><circle cx="0" cy="0" r="26.575" id="LhfPuAg5TSdsx3zWUhN__pad-21"/><rect x="-25" y="-12.5" width="50" height="25" id="LhfPuAg5TSdsx3zWUhN__pad-22"/><rect x="-25" y="-78.74" width="50" height="157.48" id="LhfPuAg5TSdsx3zWUhN__pad-23"/><polygon points="29.52994,12.2317 12.2317,29.52994 -12.2317,29.52994 -29.52994,12.2317 -29.52994,-12.2317 -12.2317,-29.52994 12.2317,-29.52994 29.52994,-12.2317" id="LhfPuAg5TSdsx3zWUhN__pad-24"/><rect x="-27.56" y="-19.685" width="55.12" height="39.37" id="LhfPuAg5TSdsx3zWUhN__pad-26"/><rect x="-13.78" y="-23.62" width="27.56" height="47.24" id="LhfPuAg5TSdsx3zWUhN__pad-27"/><rect x="-29.53" y="-39.37" width="59.06" height="78.74" id="LhfPuAg5TSdsx3zWUhN__pad-28"/><rect x="-39.37" y="-29.53" width="78.74" height="59.06" id="LhfPuAg5TSdsx3zWUhN__pad-29"/><rect x="-39.37" y="-47.245" width="78.74" height="94.49" id="LhfPuAg5TSdsx3zWUhN__pad-30"/><rect x="-9.845" y="-45.435" width="19.69" height="90.87" id="LhfPuAg5TSdsx3zWUhN__pad-31"/><circle cx="0" cy="0" r="19.685" id="LhfPuAg5TSdsx3zWUhN__pad-32"/><rect x="-21.655" y="-19.685" width="43.31" height="39.37" id="LhfPuAg5TSdsx3zWUhN__pad-33"/><polygon points="34.99993,14.49745 14.49745,34.99993 -14.49745,34.99993 -34.99993,14.49745 -34.99993,-14.49745 -14.49745,-34.99993 14.49745,-34.99993 34.99993,-14.49745" id="LhfPuAg5TSdsx3zWUhN__pad-34"/></defs><g transform="translate(0,3525.1200000000003) scale(1,-1)" fill="currentColor" stroke="currentColor"><path d="M 286.18 483.03 286.18 3042.09 286.24 3046.85 286.41 3051.6 286.7 3056.35 287.1 3061.09 287.62 3065.82 288.25 3070.53 288.99 3075.23 289.85 3079.91 290.82 3084.57 291.9 3089.2 293.09 3093.8 294.4 3098.38 295.81 3102.92 297.34 3107.43 298.97 3111.89 300.71 3116.32 302.56 3120.7 304.51 3125.04 306.57 3129.33 308.73 3133.57 310.99 3137.76 313.35 3141.89 315.81 3145.96 318.37 3149.97 321.03 3153.91 323.78 3157.8 326.62 3161.61 329.55 3165.35 332.57 3169.03 335.69 3172.63 338.88 3176.15 342.16 3179.59 345.53 3182.96 348.97 3186.24 352.49 3189.43 356.09 3192.55 359.77 3195.57 363.51 3198.5 367.32 3201.34 371.21 3204.09 375.15 3206.75 379.16 3209.31 383.23 3211.77 387.36 3214.13 391.55 3216.39 395.79 3218.55 400.08 3220.61 404.42 3222.56 408.8 3224.41 413.23 3226.15 417.69 3227.78 422.2 3229.31 426.74 3230.72 431.32 3232.03 435.92 3233.22 440.55 3234.3 445.21 3235.27 449.89 3236.13 454.59 3236.87 459.3 3237.5 464.03 3238.02 468.77 3238.42 473.52 3238.71 478.27 3238.88 483.03 3238.94 2254.69 3238.94 2259.45 3238.88 2264.2 3238.71 2268.95 3238.42 2273.69 3238.02 2278.42 3237.5 2283.13 3236.87 2287.83 3236.13 2292.51 3235.27 2297.17 3234.3 2301.8 3233.22 2306.4 3232.03 2310.98 3230.72 2315.52 3229.31 2320.03 3227.78 2324.49 3226.15 2328.92 3224.41 2333.3 3222.56 2337.64 3220.61 2341.93 3218.55 2346.17 3216.39 2350.36 3214.13 2354.49 3211.77 2358.56 3209.31 2362.57 3206.75 2366.51 3204.09 2370.4 3201.34 2374.21 3198.5 2377.95 3195.57 2381.63 3192.55 2385.23 3189.43 2388.75 3186.24 2392.19 3182.96 2395.56 3179.59 2398.84 3176.15 2402.03 3172.63 2405.15 3169.03 2408.17 3165.35 2411.1 3161.61 2413.94 3157.8 2416.69 3153.91 2419.35 3149.97 2421.91 3145.96 2424.37 3141.89 2426.73 3137.76 2428.99 3133.57 2431.15 3129.33 2433.21 3125.04 2435.16 3120.7 2437.01 3116.32 2438.75 3111.89 2440.38 3107.43 2441.91 3102.92 2443.32 3098.38 2444.63 3093.8 2445.82 3089.2 2446.9 3084.57 2447.87 3079.91 2448.73 3075.23 2449.47 3070.53 2450.1 3065.82 2450.62 3061.09 2451.02 3056.35 2451.31 3051.6 2451.48 3046.85 2451.54 3042.09 2451.54 483.03 2451.48 478.27 2451.31 473.52 2451.02 468.77 2450.62 464.03 2450.1 459.3 2449.47 454.59 2448.73 449.89 2447.87 445.21 2446.9 440.55 2445.82 435.92 2444.63 431.32 2443.32 426.74 2441.91 422.2 2440.38 417.69 2438.75 413.23 2437.01 408.8 2435.16 404.42 2433.21 400.08 2431.15 395.79 2428.99 391.55 2426.73 387.36 2424.37 383.23 2421.91 379.16 2419.35 375.15 2416.69 371.21 2413.94 367.32 2411.1 363.51 2408.17 359.77 2405.15 356.09 2402.03 352.49 2398.84 348.97 2395.56 345.53 2392.19 342.16 2388.75 338.88 2385.23 335.69 2381.63 332.57 2377.95 329.55 2374.21 326.62 2370.4 323.78 2366.51 321.03 2362.57 318.37 2358.56 315.81 2354.49 313.35 2350.36 310.99 2346.17 308.73 2341.93 306.57 2337.64 304.51 2333.3 302.56 2328.92 300.71 2324.49 298.97 2320.03 297.34 2315.52 295.81 2310.98 294.4 2306.4 293.09 2301.8 291.9 2297.17 290.82 2292.51 289.85 2287.83 288.99 2283.13 288.25 2278.42 287.62 2273.69 287.1 2268.95 286.7 2264.2 286.41 2259.45 286.24 2254.69 286.18 483.03 286.18 478.27 286.24 473.52 286.41 468.77 286.7 464.03 287.1 459.3 287.62 454.59 288.25 449.89 288.99 445.21 289.85 440.55 290.82 435.92 291.9 431.32 293.09 426.74 294.4 422.2 295.81 417.69 297.34 413.23 298.97 408.8 300.71 404.42 302.56 400.08 304.51 395.79 306.57 391.55 308.73 387.36 310.99 383.23 313.35 379.16 315.81 375.15 318.37 371.21 321.03 367.32 323.78 363.51 326.62 359.77 329.55 356.09 332.57 352.49 335.69 348.97 338.88 345.53 342.16 342.16 345.53 338.88 348.97 335.69 352.49 332.57 356.09 329.55 359.77 326.62 363.51 323.78 367.32 321.03 371.21 318.37 375.15 315.81 379.16 313.35 383.23 310.99 387.36 308.73 391.55 306.57 395.79 304.51 400.08 302.56 404.42 300.71 408.8 298.97 413.23 297.34 417.69 295.81 422.2 294.4 426.74 293.09 431.32 291.9 435.92 290.82 440.55 289.85 445.21 288.99 449.89 288.25 454.59 287.62 459.3 287.1 464.03 286.7 468.77 286.41 473.52 286.24 478.27 286.18 483.03 M 1454.88 3034.31 1454.9 3035.19 1454.96 3036.07 1455.06 3036.95 1455.2 3037.83 1455.37 3038.69 1455.59 3039.55 1455.84 3040.39 1456.14 3041.23 1456.46 3042.05 1456.83 3042.85 1457.23 3043.64 1457.67 3044.41 1458.14 3045.16 1458.64 3045.88 1459.18 3046.59 1459.74 3047.26 1460.34 3047.92 1460.96 3048.54 1461.62 3049.14 1462.29 3049.7 1463 3050.24 1463.72 3050.74 1464.47 3051.21 1465.24 3051.65 1466.03 3052.05 1466.83 3052.42 1467.65 3052.74 1468.49 3053.04 1469.33 3053.29 1470.19 3053.51 1471.05 3053.68 1471.93 3053.82 1472.81 3053.92 1473.69 3053.98 1474.57 3054 1475.45 3053.98 1476.33 3053.92 1477.21 3053.82 1478.09 3053.68 1478.95 3053.51 1479.81 3053.29 1480.65 3053.04 1481.49 3052.74 1482.31 3052.42 1483.11 3052.05 1483.9 3051.65 1484.67 3051.21 1485.42 3050.74 1486.14 3050.24 1486.85 3049.7 1487.52 3049.14 1488.18 3048.54 1488.8 3047.92 1489.4 3047.26 1489.96 3046.59 1490.5 3045.88 1491 3045.16 1491.47 3044.41 1491.91 3043.64 1492.31 3042.85 1492.68 3042.05 1493 3041.23 1493.3 3040.39 1493.55 3039.55 1493.77 3038.69 1493.94 3037.83 1494.08 3036.95 1494.18 3036.07 1494.24 3035.19 1494.26 3034.31 1494.24 3033.43 1494.18 3032.55 1494.08 3031.67 1493.94 3030.79 1493.77 3029.93 1493.55 3029.07 1493.3 3028.23 1493 3027.39 1492.68 3026.57 1492.31 3025.77 1491.91 3024.98 1491.47 3024.21 1491 3023.46 1490.5 3022.74 1489.96 3022.03 1489.4 3021.36 1488.8 3020.7 1488.18 3020.08 1487.52 3019.48 1486.85 3018.92 1486.14 3018.38 1485.42 3017.88 1484.67 3017.41 1483.9 3016.97 1483.11 3016.57 1482.31 3016.2 1481.49 3015.88 1480.65 3015.58 1479.81 3015.33 1478.95 3015.11 1478.09 3014.94 1477.21 3014.8 1476.33 3014.7 1475.45 3014.64 1474.57 3014.62 1473.69 3014.64 1472.81 3014.7 1471.93 3014.8 1471.05 3014.94 1470.19 3015.11 1469.33 3015.33 1468.49 3015.58 1467.65 3015.88 1466.83 3016.2 1466.03 3016.57 1465.24 3016.97 1464.47 3017.41 1463.72 3017.88 1463 3018.38 1462.29 3018.92 1461.62 3019.48 1460.96 3020.08 1460.34 3020.7 1459.74 3021.36 1459.18 3022.03 1458.64 3022.74 1458.14 3023.46 1457.67 3024.21 1457.23 3024.98 1456.83 3025.77 1456.46 3026.57 1456.14 3027.39 1455.84 3028.23 1455.59 3029.07 1455.37 3029.93 1455.2 3030.79 1455.06 3031.67 1454.96 3032.55 1454.9 3033.43 1454.88 3034.31 M 1628.11 3034.31 1628.13 3035.19 1628.19 3036.07 1628.29 3036.95 1628.43 3037.83 1628.6 3038.69 1628.82 3039.55 1629.07 3040.39 1629.37 3041.23 1629.69 3042.05 1630.06 3042.85 1630.46 3043.64 1630.9 3044.41 1631.37 3045.16 1631.87 3045.88 1632.41 3046.59 1632.97 3047.26 1633.57 3047.92 1634.19 3048.54 1634.85 3049.14 1635.52 3049.7 1636.23 3050.24 1636.95 3050.74 1637.7 3051.21 1638.47 3051.65 1639.26 3052.05 1640.06 3052.42 1640.88 3052.74 1641.72 3053.04 1642.56 3053.29 1643.42 3053.51 1644.28 3053.68 1645.16 3053.82 1646.04 3053.92 1646.92 3053.98 1647.8 3054 1648.68 3053.98 1649.56 3053.92 1650.44 3053.82 1651.32 3053.68 1652.18 3053.51 1653.04 3053.29 1653.88 3053.04 1654.72 3052.74 1655.54 3052.42 1656.34 3052.05 1657.13 3051.65 1657.9 3051.21 1658.65 3050.74 1659.37 3050.24 1660.08 3049.7 1660.75 3049.14 1661.41 3048.54 1662.03 3047.92 1662.63 3047.26 1663.19 3046.59 1663.73 3045.88 1664.23 3045.16 1664.7 3044.41 1665.14 3043.64 1665.54 3042.85 1665.91 3042.05 1666.23 3041.23 1666.53 3040.39 1666.78 3039.55 1667 3038.69 1667.17 3037.83 1667.31 3036.95 1667.41 3036.07 1667.47 3035.19 1667.49 3034.31 1667.47 3033.43 1667.41 3032.55 1667.31 3031.67 1667.17 3030.79 1667 3029.93 1666.78 3029.07 1666.53 3028.23 1666.23 3027.39 1665.91 3026.57 1665.54 3025.77 1665.14 3024.98 1664.7 3024.21 1664.23 3023.46 1663.73 3022.74 1663.19 3022.03 1662.63 3021.36 1662.03 3020.7 1661.41 3020.08 1660.75 3019.48 1660.08 3018.92 1659.37 3018.38 1658.65 3017.88 1657.9 3017.41 1657.13 3016.97 1656.34 3016.57 1655.54 3016.2 1654.72 3015.88 1653.88 3015.58 1653.04 3015.33 1652.18 3015.11 1651.32 3014.94 1650.44 3014.8 1649.56 3014.7 1648.68 3014.64 1647.8 3014.62 1646.92 3014.64 1646.04 3014.7 1645.16 3014.8 1644.28 3014.94 1643.42 3015.11 1642.56 3015.33 1641.72 3015.58 1640.88 3015.88 1640.06 3016.2 1639.26 3016.57 1638.47 3016.97 1637.7 3017.41 1636.95 3017.88 1636.23 3018.38 1635.52 3018.92 1634.85 3019.48 1634.19 3020.08 1633.57 3020.7 1632.97 3021.36 1632.41 3022.03 1631.87 3022.74 1631.37 3023.46 1630.9 3024.21 1630.46 3024.98 1630.06 3025.77 1629.69 3026.57 1629.37 3027.39 1629.07 3028.23 1628.82 3029.07 1628.6 3029.93 1628.43 3030.79 1628.29 3031.67 1628.19 3032.55 1628.13 3033.43 1628.11 3034.31" fill="none" stroke-width="0"/><path d="M 523.68 2623.68 473.68 2573.68 423.68 2623.68 448.68 2623.68 448.68 2723.68 498.68 2723.68 498.68 2623.68 523.68 2623.68 M 522.7 2622.7 424.66 2622.7 M 434.65 2612.71 512.71 2612.71 M 502.73 2602.73 444.63 2602.73 M 454.62 2592.74 492.74 2592.74 M 482.76 2582.76 464.61 2582.76 M 448.68 2632.68 498.68 2632.68 M 498.68 2642.67 448.68 2642.67 M 448.68 2652.65 498.68 2652.65 M 498.68 2662.64 448.68 2662.64 M 448.68 2672.62 498.68 2672.62 M 498.68 2682.61 448.68 2682.61 M 448.68 2692.59 498.68 2692.59 M 498.68 2702.58 448.68 2702.58 M 448.68 2712.56 498.68 2712.56 M 498.68 2722.55 448.68 2722.55" fill="none" stroke-width="10"/><path d="M 382.18 2706.1 340.18 2706.1 M 340.18 2682.76 382.18 2706.1 M 382.18 2682.76 340.18 2682.76 M 351.85 2659.6 370.51 2659.6 371.18 2659.58 371.84 2659.52 372.5 2659.43 373.15 2659.3 373.8 2659.13 374.43 2658.92 375.05 2658.68 375.66 2658.4 376.25 2658.09 376.82 2657.75 377.37 2657.37 377.9 2656.96 378.4 2656.53 378.88 2656.06 379.33 2655.57 379.75 2655.06 380.14 2654.52 380.5 2653.96 380.83 2653.38 381.13 2652.78 381.38 2652.16 381.61 2651.54 381.8 2650.9 381.95 2650.25 382.06 2649.59 382.14 2648.93 382.18 2648.26 382.18 2647.6 382.14 2646.93 382.06 2646.27 381.95 2645.61 381.8 2644.96 381.61 2644.32 381.38 2643.7 381.13 2643.08 380.83 2642.48 380.5 2641.9 380.14 2641.34 379.75 2640.8 379.33 2640.29 378.88 2639.8 378.4 2639.33 377.9 2638.9 377.37 2638.49 376.82 2638.11 376.25 2637.77 375.66 2637.46 375.05 2637.18 374.43 2636.94 373.8 2636.73 373.15 2636.56 372.5 2636.43 371.84 2636.34 371.18 2636.28 370.51 2636.26 351.85 2636.26 351.18 2636.28 350.52 2636.34 349.86 2636.43 349.21 2636.56 348.56 2636.73 347.93 2636.94 347.31 2637.18 346.7 2637.46 346.11 2637.77 345.54 2638.11 344.99 2638.49 344.46 2638.9 343.96 2639.33 343.48 2639.8 343.03 2640.29 342.61 2640.8 342.22 2641.34 341.86 2641.9 341.53 2642.48 341.23 2643.08 340.98 2643.7 340.75 2644.32 340.56 2644.96 340.41 2645.61 340.3 2646.27 340.22 2646.93 340.18 2647.6 340.18 2648.26 340.22 2648.93 340.3 2649.59 340.41 2650.25 340.56 2650.9 340.75 2651.54 340.98 2652.16 341.23 2652.78 341.53 2653.38 341.86 2653.96 342.22 2654.52 342.61 2655.06 343.03 2655.57 343.48 2656.06 343.96 2656.53 344.46 2656.96 344.99 2657.37 345.54 2657.75 346.11 2658.09 346.7 2658.4 347.31 2658.68 347.93 2658.92 348.56 2659.13 349.21 2659.3 349.86 2659.43 350.52 2659.52 351.18 2659.58 351.85 2659.6 M 382.18 2591.03 363.51 2581.7 M 363.51 2579.37 363.51 2567.7 M 363.52 2579.37 363.5 2580.04 363.44 2580.7 363.35 2581.36 363.22 2582.01 363.05 2582.66 362.84 2583.29 362.6 2583.91 362.32 2584.52 362.01 2585.11 361.67 2585.68 361.29 2586.23 360.88 2586.76 360.45 2587.26 359.98 2587.74 359.49 2588.19 358.98 2588.61 358.44 2589 357.88 2589.36 357.3 2589.69 356.7 2589.99 356.08 2590.24 355.46 2590.47 354.82 2590.66 354.17 2590.81 353.51 2590.92 352.85 2591 352.18 2591.04 351.52 2591.04 350.85 2591 350.19 2590.92 349.53 2590.81 348.88 2590.66 348.24 2590.47 347.62 2590.24 347 2589.99 346.4 2589.69 345.82 2589.36 345.26 2589 344.72 2588.61 344.21 2588.19 343.72 2587.74 343.25 2587.26 342.82 2586.76 342.41 2586.23 342.03 2585.68 341.69 2585.11 341.38 2584.52 341.1 2583.91 340.86 2583.29 340.65 2582.66 340.48 2582.01 340.35 2581.36 340.26 2580.7 340.2 2580.04 340.18 2579.37 340.18 2567.7 382.18 2567.7 M 382.18 2535.76 354.18 2526.43 382.18 2517.1 340.18 2507.76 M 340.18 2477.93 340.18 2466.26 382.18 2466.26 M 363.51 2466.26 363.51 2477.93 M 363.52 2477.93 363.5 2478.6 363.44 2479.26 363.35 2479.92 363.22 2480.57 363.05 2481.22 362.84 2481.85 362.6 2482.47 362.32 2483.08 362.01 2483.67 361.67 2484.24 361.29 2484.79 360.88 2485.32 360.45 2485.82 359.98 2486.3 359.49 2486.75 358.98 2487.17 358.44 2487.56 357.88 2487.92 357.3 2488.25 356.7 2488.55 356.08 2488.8 355.46 2489.03 354.82 2489.22 354.17 2489.37 353.51 2489.48 352.85 2489.56 352.18 2489.6 351.52 2489.6 350.85 2489.56 350.19 2489.48 349.53 2489.37 348.88 2489.22 348.24 2489.03 347.62 2488.8 347 2488.55 346.4 2488.25 345.82 2487.92 345.26 2487.56 344.72 2487.17 344.21 2486.75 343.72 2486.3 343.25 2485.82 342.82 2485.32 342.41 2484.79 342.03 2484.24 341.69 2483.67 341.38 2483.08 341.1 2482.47 340.86 2481.85 340.65 2481.22 340.48 2480.57 340.35 2479.92 340.26 2479.26 340.2 2478.6 340.18 2477.93 M 340.18 2545.1 382.18 2535.76" fill="none" stroke-width="8"/><use xlink:href="#LhfPuAg5TSdsx3zWUhN__pad-13" x="1111.18" y="2511.18"/><use xlink:href="#LhfPuAg5TSdsx3zWUhN__pad-13" x="1111.18" y="2411.18"/><use xlink:href="#LhfPuAg5TSdsx3zWUhN__pad-13" x="1111.18" y="2311.18"/><use xlink:href="#LhfPuAg5TSdsx3zWUhN__pad-13" x="1111.18" y="2211.18"/><use xlink:href="#LhfPuAg5TSdsx3zWUhN__pad-13" x="1111.18" y="2111.18"/><use xlink:href="#LhfPuAg5TSdsx3zWUhN__pad-13" x="1111.18" y="2011.18"/><use xlink:href="#LhfPuAg5TSdsx3zWUhN__pad-13" x="1111.18" y="1911.18"/><use xlink:href="#LhfPuAg5TSdsx3zWUhN__pad-13" x="1111.18" y="1811.18"/><use xlink:href="#LhfPuAg5TSdsx3zWUhN__pad-13" x="1111.18" y="1711.18"/><use xlink:href="#LhfPuAg5TSdsx3zWUhN__pad-13" x="1111.18" y="1611.18"/><use xlink:href="#LhfPuAg5TSdsx3zWUhN__pad-13" x="1111.18" y="1511.18"/><use xlink:href="#LhfPuAg5TSdsx3zWUhN__pad-13" x="1111.18" y="1411.18"/><use xlink:href="#LhfPuAg5TSdsx3zWUhN__pad-13" x="1111.18" y="1311.18"/><use xlink:href="#LhfPuAg5TSdsx3zWUhN__pad-13" x="1111.18" y="1211.18"/><use xlink:href="#LhfPuAg5TSdsx3zWUhN__pad-13" x="2011.18" y="1211.18"/><use xlink:href="#LhfPuAg5TSdsx3zWUhN__pad-13" x="2011.18" y="1311.18"/><use xlink:href="#LhfPuAg5TSdsx3zWUhN__pad-13" x="2011.18" y="1411.18"/><use xlink:href="#LhfPuAg5TSdsx3zWUhN__pad-13" x="2011.18" y="1511.18"/><use xlink:href="#LhfPuAg5TSdsx3zWUhN__pad-13" x="2011.18" y="1611.18"/><use xlink:href="#LhfPuAg5TSdsx3zWUhN__pad-13" x="2011.18" y="1711.18"/><use xlink:href="#LhfPuAg5TSdsx3zWUhN__pad-13" x="2011.18" y="1811.18"/><use xlink:href="#LhfPuAg5TSdsx3zWUhN__pad-13" x="2011.18" y="1911.18"/><use xlink:href="#LhfPuAg5TSdsx3zWUhN__pad-13" x="2011.18" y="2011.18"/><use xlink:href="#LhfPuAg5TSdsx3zWUhN__pad-13" x="2011.18" y="2111.18"/><use xlink:href="#LhfPuAg5TSdsx3zWUhN__pad-13" x="2011.18" y="2211.18"/><use xlink:href="#LhfPuAg5TSdsx3zWUhN__pad-13" x="2011.18" y="2311.18"/><use xlink:href="#LhfPuAg5TSdsx3zWUhN__pad-13" x="2011.18" y="2411.18"/><use xlink:href="#LhfPuAg5TSdsx3zWUhN__pad-13" x="2011.18" y="2511.18"/><use xlink:href="#LhfPuAg5TSdsx3zWUhN__pad-13" x="2011.18" y="2611.18"/><use xlink:href="#LhfPuAg5TSdsx3zWUhN__pad-13" x="2011.18" y="2711.18"/><use xlink:href="#LhfPuAg5TSdsx3zWUhN__pad-13" x="2011.18" y="2811.18"/><use xlink:href="#LhfPuAg5TSdsx3zWUhN__pad-13" x="2011.18" y="2911.18"/><use xlink:href="#LhfPuAg5TSdsx3zWUhN__pad-13" x="2011.18" y="3011.18"/><use xlink:href="#LhfPuAg5TSdsx3zWUhN__pad-13" x="2011.18" y="3111.18"/><use xlink:href="#LhfPuAg5TSdsx3zWUhN__pad-13" x="1111.18" y="3111.18"/><use xlink:href="#LhfPuAg5TSdsx3zWUhN__pad-13" x="1111.18" y="3011.18"/><use xlink:href="#LhfPuAg5TSdsx3zWUhN__pad-13" x="1111.18" y="2911.18"/><use xlink:href="#LhfPuAg5TSdsx3zWUhN__pad-13" x="1111.18" y="2811.18"/><use xlink:href="#LhfPuAg5TSdsx3zWUhN__pad-13" x="1111.18" y="2711.18"/><use xlink:href="#LhfPuAg5TSdsx3zWUhN__pad-13" x="1111.18" y="2611.18"/><use xlink:href="#LhfPuAg5TSdsx3zWUhN__pad-14" x="483.03" y="3042.09"/><use xlink:href="#LhfPuAg5TSdsx3zWUhN__pad-14" x="2254.69" y="3042.09"/><use xlink:href="#LhfPuAg5TSdsx3zWUhN__pad-14" x="2254.69" y="483.03"/><use xlink:href="#LhfPuAg5TSdsx3zWUhN__pad-14" x="483.03" y="483.03"/><use xlink:href="#LhfPuAg5TSdsx3zWUhN__pad-15" x="746.81" y="536.18"/><use xlink:href="#LhfPuAg5TSdsx3zWUhN__pad-15" x="825.55" y="536.18"/><use xlink:href="#LhfPuAg5TSdsx3zWUhN__pad-15" x="1046.81" y="536.18"/><use xlink:href="#LhfPuAg5TSdsx3zWUhN__pad-15" x="1125.55" y="536.18"/><use xlink:href="#LhfPuAg5TSdsx3zWUhN__pad-15" x="825.55" y="2986.18"/><use xlink:href="#LhfPuAg5TSdsx3zWUhN__pad-15" x="746.81" y="2986.18"/><path d="M 753.7 2811.18 818.66 2811.18 M 818.66 2711.18 753.7 2711.18 M 753.7 2611.18 818.66 2611.18" fill="none" stroke-width="64.96"/><use xlink:href="#LhfPuAg5TSdsx3zWUhN__pad-17" x="836.18" y="2436.18"/><use xlink:href="#LhfPuAg5TSdsx3zWUhN__pad-17" x="736.18" y="2436.18"/><use xlink:href="#LhfPuAg5TSdsx3zWUhN__pad-17" x="636.18" y="2436.18"/><use xlink:href="#LhfPuAg5TSdsx3zWUhN__pad-17" x="536.18" y="2436.18"/><use xlink:href="#LhfPuAg5TSdsx3zWUhN__pad-17" x="536.18" y="2036.18"/><use xlink:href="#LhfPuAg5TSdsx3zWUhN__pad-17" x="636.18" y="2036.18"/><use xlink:href="#LhfPuAg5TSdsx3zWUhN__pad-17" x="736.18" y="2036.18"/><use xlink:href="#LhfPuAg5TSdsx3zWUhN__pad-17" x="836.18" y="2036.18"/><use xlink:href="#LhfPuAg5TSdsx3zWUhN__pad-18" x="433.13" y="2036.18"/><use xlink:href="#LhfPuAg5TSdsx3zWUhN__pad-18" x="364.23" y="2036.18"/><use xlink:href="#LhfPuAg5TSdsx3zWUhN__pad-18" x="339.23" y="2786.18"/><use xlink:href="#LhfPuAg5TSdsx3zWUhN__pad-18" x="408.13" y="2786.18"/><use xlink:href="#LhfPuAg5TSdsx3zWUhN__pad-19" x="477.72" y="2786.18"/><use xlink:href="#LhfPuAg5TSdsx3zWUhN__pad-19" x="544.65" y="2786.18"/><use xlink:href="#LhfPuAg5TSdsx3zWUhN__pad-19" x="902.72" y="2436.18"/><use xlink:href="#LhfPuAg5TSdsx3zWUhN__pad-19" x="969.65" y="2436.18"/><use xlink:href="#LhfPuAg5TSdsx3zWUhN__pad-19" x="519.65" y="1886.18"/><use xlink:href="#LhfPuAg5TSdsx3zWUhN__pad-19" x="452.72" y="1886.18"/><use xlink:href="#LhfPuAg5TSdsx3zWUhN__pad-19" x="452.72" y="1761.18"/><use xlink:href="#LhfPuAg5TSdsx3zWUhN__pad-19" x="519.65" y="1761.18"/><use xlink:href="#LhfPuAg5TSdsx3zWUhN__pad-19" x="519.65" y="1636.18"/><use xlink:href="#LhfPuAg5TSdsx3zWUhN__pad-19" x="452.72" y="1636.18"/><use xlink:href="#LhfPuAg5TSdsx3zWUhN__pad-19" x="452.72" y="1511.18"/><use xlink:href="#LhfPuAg5TSdsx3zWUhN__pad-19" x="519.65" y="1511.18"/><use xlink:href="#LhfPuAg5TSdsx3zWUhN__pad-19" x="482.15" y="936.18"/><use xlink:href="#LhfPuAg5TSdsx3zWUhN__pad-19" x="415.22" y="936.18"/><use xlink:href="#LhfPuAg5TSdsx3zWUhN__pad-19" x="1465.22" y="1861.18"/><use xlink:href="#LhfPuAg5TSdsx3zWUhN__pad-19" x="1532.15" y="1861.18"/><use xlink:href="#LhfPuAg5TSdsx3zWUhN__pad-19" x="1790.22" y="1823.68"/><use xlink:href="#LhfPuAg5TSdsx3zWUhN__pad-19" x="1857.15" y="1823.68"/><use xlink:href="#LhfPuAg5TSdsx3zWUhN__pad-19" x="1840.22" y="1511.18"/><use xlink:href="#LhfPuAg5TSdsx3zWUhN__pad-19" x="1907.15" y="1511.18"/><use xlink:href="#LhfPuAg5TSdsx3zWUhN__pad-19" x="1907.15" y="1411.18"/><use xlink:href="#LhfPuAg5TSdsx3zWUhN__pad-19" x="1840.22" y="1411.18"/><use xlink:href="#LhfPuAg5TSdsx3zWUhN__pad-19" x="1840.22" y="1311.18"/><use xlink:href="#LhfPuAg5TSdsx3zWUhN__pad-19" x="1907.15" y="1311.18"/><use xlink:href="#LhfPuAg5TSdsx3zWUhN__pad-19" x="1907.15" y="1211.18"/><use xlink:href="#LhfPuAg5TSdsx3zWUhN__pad-19" x="1840.22" y="1211.18"/><use xlink:href="#LhfPuAg5TSdsx3zWUhN__pad-20" x="986.18" y="2301.73"/><use xlink:href="#LhfPuAg5TSdsx3zWUhN__pad-20" x="986.18" y="2370.63"/><use xlink:href="#LhfPuAg5TSdsx3zWUhN__pad-20" x="586.18" y="1383.13"/><use xlink:href="#LhfPuAg5TSdsx3zWUhN__pad-20" x="586.18" y="1314.23"/><use xlink:href="#LhfPuAg5TSdsx3zWUhN__pad-21" x="586.18" y="1011.18"/><use xlink:href="#LhfPuAg5TSdsx3zWUhN__pad-21" x="686.18" y="1011.18"/><use xlink:href="#LhfPuAg5TSdsx3zWUhN__pad-21" x="786.18" y="1011.18"/><use xlink:href="#LhfPuAg5TSdsx3zWUhN__pad-21" x="886.18" y="1011.18"/><use xlink:href="#LhfPuAg5TSdsx3zWUhN__pad-21" x="986.18" y="1011.18"/><use xlink:href="#LhfPuAg5TSdsx3zWUhN__pad-21" x="1086.18" y="1011.18"/><use xlink:href="#LhfPuAg5TSdsx3zWUhN__pad-21" x="1310.79" y="991.1"/><use xlink:href="#LhfPuAg5TSdsx3zWUhN__pad-21" x="1410.79" y="991.1"/><use xlink:href="#LhfPuAg5TSdsx3zWUhN__pad-21" x="1510.79" y="991.1"/><use xlink:href="#LhfPuAg5TSdsx3zWUhN__pad-21" x="1610.79" y="991.1"/><use xlink:href="#LhfPuAg5TSdsx3zWUhN__pad-21" x="1710.79" y="991.1"/><use xlink:href="#LhfPuAg5TSdsx3zWUhN__pad-21" x="1810.79" y="991.1"/><use xlink:href="#LhfPuAg5TSdsx3zWUhN__pad-21" x="1910.79" y="991.1"/><use xlink:href="#LhfPuAg5TSdsx3zWUhN__pad-21" x="2010.79" y="991.1"/><use xlink:href="#LhfPuAg5TSdsx3zWUhN__pad-21" x="1086.18" y="711.18"/><use xlink:href="#LhfPuAg5TSdsx3zWUhN__pad-21" x="986.18" y="711.18"/><use xlink:href="#LhfPuAg5TSdsx3zWUhN__pad-21" x="886.18" y="711.18"/><use xlink:href="#LhfPuAg5TSdsx3zWUhN__pad-21" x="786.18" y="711.18"/><use xlink:href="#LhfPuAg5TSdsx3zWUhN__pad-21" x="686.18" y="711.18"/><use xlink:href="#LhfPuAg5TSdsx3zWUhN__pad-21" x="586.18" y="711.18"/><use xlink:href="#LhfPuAg5TSdsx3zWUhN__pad-22" x="598.68" y="1511.18"/><use xlink:href="#LhfPuAg5TSdsx3zWUhN__pad-22" x="598.68" y="1561.18"/><use xlink:href="#LhfPuAg5TSdsx3zWUhN__pad-22" x="598.68" y="1636.18"/><use xlink:href="#LhfPuAg5TSdsx3zWUhN__pad-22" x="598.68" y="1686.18"/><use xlink:href="#LhfPuAg5TSdsx3zWUhN__pad-22" x="598.68" y="1761.18"/><use xlink:href="#LhfPuAg5TSdsx3zWUhN__pad-22" x="598.68" y="1811.18"/><use xlink:href="#LhfPuAg5TSdsx3zWUhN__pad-22" x="598.68" y="1886.18"/><use xlink:href="#LhfPuAg5TSdsx3zWUhN__pad-22" x="598.68" y="1936.18"/><use xlink:href="#LhfPuAg5TSdsx3zWUhN__pad-22" x="869.94" y="1936.18"/><use xlink:href="#LhfPuAg5TSdsx3zWUhN__pad-22" x="869.94" y="1886.18"/><use xlink:href="#LhfPuAg5TSdsx3zWUhN__pad-22" x="869.94" y="1811.18"/><use xlink:href="#LhfPuAg5TSdsx3zWUhN__pad-22" x="869.94" y="1761.18"/><use xlink:href="#LhfPuAg5TSdsx3zWUhN__pad-22" x="869.94" y="1686.18"/><use xlink:href="#LhfPuAg5TSdsx3zWUhN__pad-22" x="869.94" y="1636.18"/><use xlink:href="#LhfPuAg5TSdsx3zWUhN__pad-22" x="869.94" y="1561.18"/><use xlink:href="#LhfPuAg5TSdsx3zWUhN__pad-22" x="869.94" y="1511.18"/><use xlink:href="#LhfPuAg5TSdsx3zWUhN__pad-23" x="1324.96" y="2186.18"/><use xlink:href="#LhfPuAg5TSdsx3zWUhN__pad-23" x="1797.4" y="2186.18"/><use xlink:href="#LhfPuAg5TSdsx3zWUhN__pad-24" x="2133.23" y="2236.18"/><use xlink:href="#LhfPuAg5TSdsx3zWUhN__pad-24" x="2133.23" y="1986.18"/><use xlink:href="#LhfPuAg5TSdsx3zWUhN__pad-24" x="2389.13" y="1986.18"/><use xlink:href="#LhfPuAg5TSdsx3zWUhN__pad-24" x="2389.13" y="2236.18"/><use xlink:href="#LhfPuAg5TSdsx3zWUhN__pad-24" x="2389.13" y="2486.18"/><use xlink:href="#LhfPuAg5TSdsx3zWUhN__pad-24" x="2389.13" y="2736.18"/><use xlink:href="#LhfPuAg5TSdsx3zWUhN__pad-24" x="2133.23" y="2736.18"/><use xlink:href="#LhfPuAg5TSdsx3zWUhN__pad-24" x="2133.23" y="2486.18"/><path d="M 2249.68 1611.18 2297.68 1611.18 M 2197.68 1511.18 2149.68 1511.18 M 2249.68 1411.18 2297.68 1411.18 M 2297.68 1273.68 2249.68 1273.68 M 2197.68 1173.68 2149.68 1173.68 M 2249.68 1073.68 2297.68 1073.68 M 2297.68 936.18 2249.68 936.18 M 2197.68 836.18 2149.68 836.18 M 2249.68 736.18 2297.68 736.18" fill="none" stroke-width="48"/><use xlink:href="#LhfPuAg5TSdsx3zWUhN__pad-26" x="1704.49" y="1823.78"/><use xlink:href="#LhfPuAg5TSdsx3zWUhN__pad-26" x="1704.49" y="1898.58"/><use xlink:href="#LhfPuAg5TSdsx3zWUhN__pad-26" x="1617.87" y="1861.18"/><use xlink:href="#LhfPuAg5TSdsx3zWUhN__pad-27" x="623.68" y="2663.35"/><use xlink:href="#LhfPuAg5TSdsx3zWUhN__pad-27" x="623.68" y="2809.02"/><use xlink:href="#LhfPuAg5TSdsx3zWUhN__pad-28" x="470.24" y="1286.18"/><use xlink:href="#LhfPuAg5TSdsx3zWUhN__pad-28" x="470.24" y="1173.68"/><use xlink:href="#LhfPuAg5TSdsx3zWUhN__pad-28" x="352.13" y="1173.68"/><use xlink:href="#LhfPuAg5TSdsx3zWUhN__pad-28" x="352.13" y="1286.18"/><use xlink:href="#LhfPuAg5TSdsx3zWUhN__pad-28" x="352.13" y="836.18"/><use xlink:href="#LhfPuAg5TSdsx3zWUhN__pad-28" x="352.13" y="711.18"/><use xlink:href="#LhfPuAg5TSdsx3zWUhN__pad-28" x="470.24" y="711.18"/><use xlink:href="#LhfPuAg5TSdsx3zWUhN__pad-28" x="470.24" y="836.18"/><use xlink:href="#LhfPuAg5TSdsx3zWUhN__pad-29" x="998.68" y="2977.13"/><use xlink:href="#LhfPuAg5TSdsx3zWUhN__pad-29" x="998.68" y="3095.24"/><use xlink:href="#LhfPuAg5TSdsx3zWUhN__pad-30" x="1387.95" y="3152.42"/><use xlink:href="#LhfPuAg5TSdsx3zWUhN__pad-30" x="1387.95" y="2935.89"/><use xlink:href="#LhfPuAg5TSdsx3zWUhN__pad-30" x="1734.41" y="2935.89"/><use xlink:href="#LhfPuAg5TSdsx3zWUhN__pad-30" x="1734.41" y="3152.42"/><use xlink:href="#LhfPuAg5TSdsx3zWUhN__pad-31" x="1624.17" y="2913.68"/><use xlink:href="#LhfPuAg5TSdsx3zWUhN__pad-31" x="1592.68" y="2913.68"/><use xlink:href="#LhfPuAg5TSdsx3zWUhN__pad-31" x="1561.18" y="2913.68"/><use xlink:href="#LhfPuAg5TSdsx3zWUhN__pad-31" x="1529.69" y="2913.68"/><use xlink:href="#LhfPuAg5TSdsx3zWUhN__pad-31" x="1498.19" y="2913.68"/><use xlink:href="#LhfPuAg5TSdsx3zWUhN__pad-32" x="1474.57" y="3034.31"/><use xlink:href="#LhfPuAg5TSdsx3zWUhN__pad-32" x="1647.8" y="3034.31"/><use xlink:href="#LhfPuAg5TSdsx3zWUhN__pad-33" x="1611.18" y="2744.65"/><use xlink:href="#LhfPuAg5TSdsx3zWUhN__pad-33" x="1611.18" y="2677.72"/><use xlink:href="#LhfPuAg5TSdsx3zWUhN__pad-33" x="1523.68" y="2677.72"/><use xlink:href="#LhfPuAg5TSdsx3zWUhN__pad-33" x="1523.68" y="2744.65"/><use xlink:href="#LhfPuAg5TSdsx3zWUhN__pad-33" x="361.18" y="2182.15"/><use xlink:href="#LhfPuAg5TSdsx3zWUhN__pad-33" x="361.18" y="2115.22"/><use xlink:href="#LhfPuAg5TSdsx3zWUhN__pad-34" x="1511.18" y="361.18"/><use xlink:href="#LhfPuAg5TSdsx3zWUhN__pad-34" x="1611.18" y="361.18"/><use xlink:href="#LhfPuAg5TSdsx3zWUhN__pad-34" x="1711.18" y="361.18"/><use xlink:href="#LhfPuAg5TSdsx3zWUhN__pad-34" x="1811.18" y="361.18"/><use xlink:href="#LhfPuAg5TSdsx3zWUhN__pad-34" x="1911.18" y="361.18"/><use xlink:href="#LhfPuAg5TSdsx3zWUhN__pad-34" x="2011.18" y="361.18"/><path d="M 819 1131.81 819 1189.57 M 819 1131.81 806.9 1131.81 806.9 1189.57 819 1189.57 M 819 1135.65 806.9 1135.65 M 806.9 1139.49 819 1139.49 M 819 1143.33 806.9 1143.33 M 806.9 1147.17 819 1147.17 M 819 1151.01 806.9 1151.01 M 806.9 1154.85 819 1154.85 M 819 1158.69 806.9 1158.69 M 806.9 1162.53 819 1162.53 M 819 1166.37 806.9 1166.37 M 806.9 1170.21 819 1170.21 M 819 1174.05 806.9 1174.05 M 806.9 1177.89 819 1177.89 M 819 1181.73 806.9 1181.73 M 806.9 1185.57 819 1185.57 M 819 1189.41 806.9 1189.41 M 793.41 1189.57 793.41 1131.81 781.31 1131.81 781.31 1189.57 793.41 1189.57 M 793.41 1135.65 781.31 1135.65 M 781.31 1139.49 793.41 1139.49 M 793.41 1143.33 781.31 1143.33 M 781.31 1147.17 793.41 1147.17 M 793.41 1151.01 781.31 1151.01 M 781.31 1154.85 793.41 1154.85 M 793.41 1158.69 781.31 1158.69 M 781.31 1162.53 793.41 1162.53 M 793.41 1166.37 781.31 1166.37 M 781.31 1170.21 793.41 1170.21 M 793.41 1174.05 781.31 1174.05 M 781.31 1177.89 793.41 1177.89 M 793.41 1181.73 781.31 1181.73 M 781.31 1185.57 793.41 1185.57 M 793.41 1189.41 781.31 1189.41 M 767.82 1189.57 767.82 1131.81 755.72 1131.81 755.72 1189.57 767.82 1189.57 M 767.82 1135.65 755.72 1135.65 M 755.72 1139.49 767.82 1139.49 M 767.82 1143.33 755.72 1143.33 M 755.72 1147.17 767.82 1147.17 M 767.82 1151.01 755.72 1151.01 M 755.72 1154.85 767.82 1154.85 M 767.82 1158.69 755.72 1158.69 M 755.72 1162.53 767.82 1162.53 M 767.82 1166.37 755.72 1166.37 M 755.72 1170.21 767.82 1170.21 M 767.82 1174.05 755.72 1174.05 M 755.72 1177.89 767.82 1177.89 M 767.82 1181.73 755.72 1181.73 M 755.72 1185.57 767.82 1185.57 M 767.82 1189.41 755.72 1189.41 M 742.23 1189.57 742.23 1131.81 730.13 1131.81 730.13 1189.57 742.23 1189.57 M 742.23 1135.65 730.13 1135.65 M 730.13 1139.49 742.23 1139.49 M 742.23 1143.33 730.13 1143.33 M 730.13 1147.17 742.23 1147.17 M 742.23 1151.01 730.13 1151.01 M 730.13 1154.85 742.23 1154.85 M 742.23 1158.69 730.13 1158.69 M 730.13 1162.53 742.23 1162.53 M 742.23 1166.37 730.13 1166.37 M 730.13 1170.21 742.23 1170.21 M 742.23 1174.05 730.13 1174.05 M 730.13 1177.89 742.23 1177.89 M 742.23 1181.73 730.13 1181.73 M 730.13 1185.57 742.23 1185.57 M 742.23 1189.41 730.13 1189.41 M 716.64 1189.57 716.64 1131.81 704.54 1131.81 704.54 1189.57 716.64 1189.57 M 716.64 1135.65 704.54 1135.65 M 704.54 1139.49 716.64 1139.49 M 716.64 1143.33 704.54 1143.33 M 704.54 1147.17 716.64 1147.17 M 716.64 1151.01 704.54 1151.01 M 704.54 1154.85 716.64 1154.85 M 716.64 1158.69 704.54 1158.69 M 704.54 1162.53 716.64 1162.53 M 716.64 1166.37 704.54 1166.37 M 704.54 1170.21 716.64 1170.21 M 716.64 1174.05 704.54 1174.05 M 704.54 1177.89 716.64 1177.89 M 716.64 1181.73 704.54 1181.73 M 704.54 1185.57 716.64 1185.57 M 716.64 1189.41 704.54 1189.41 M 691.05 1189.57 691.05 1131.81 678.95 1131.81 678.95 1189.57 691.05 1189.57 M 691.05 1135.65 678.95 1135.65 M 678.95 1139.49 691.05 1139.49 M 691.05 1143.33 678.95 1143.33 M 678.95 1147.17 691.05 1147.17 M 691.05 1151.01 678.95 1151.01 M 678.95 1154.85 691.05 1154.85 M 691.05 1158.69 678.95 1158.69 M 678.95 1162.53 691.05 1162.53 M 691.05 1166.37 678.95 1166.37 M 678.95 1170.21 691.05 1170.21 M 691.05 1174.05 678.95 1174.05 M 678.95 1177.89 691.05 1177.89 M 691.05 1181.73 678.95 1181.73 M 678.95 1185.57 691.05 1185.57 M 691.05 1189.41 678.95 1189.41 M 665.46 1189.57 665.46 1131.81 653.36 1131.81 653.36 1189.57 665.46 1189.57 M 665.46 1135.65 653.36 1135.65 M 653.36 1139.49 665.46 1139.49 M 665.46 1143.33 653.36 1143.33 M 653.36 1147.17 665.46 1147.17 M 665.46 1151.01 653.36 1151.01 M 653.36 1154.85 665.46 1154.85 M 665.46 1158.69 653.36 1158.69 M 653.36 1162.53 665.46 1162.53 M 665.46 1166.37 653.36 1166.37 M 653.36 1170.21 665.46 1170.21 M 665.46 1174.05 653.36 1174.05 M 653.36 1177.89 665.46 1177.89 M 665.46 1181.73 653.36 1181.73 M 653.36 1185.57 665.46 1185.57 M 665.46 1189.41 653.36 1189.41 M 665.46 1357.79 665.46 1415.55 M 665.46 1357.79 653.36 1357.79 653.36 1415.55 665.46 1415.55 M 665.46 1361.63 653.36 1361.63 M 653.36 1365.47 665.46 1365.47 M 665.46 1369.31 653.36 1369.31 M 653.36 1373.15 665.46 1373.15 M 665.46 1376.99 653.36 1376.99 M 653.36 1380.83 665.46 1380.83 M 665.46 1384.67 653.36 1384.67 M 653.36 1388.51 665.46 1388.51 M 665.46 1392.35 653.36 1392.35 M 653.36 1396.19 665.46 1396.19 M 665.46 1400.03 653.36 1400.03 M 653.36 1403.87 665.46 1403.87 M 665.46 1407.71 653.36 1407.71 M 653.36 1411.55 665.46 1411.55 M 665.46 1415.39 653.36 1415.39 M 691.05 1415.55 691.05 1357.79 678.95 1357.79 678.95 1415.55 691.05 1415.55 M 691.05 1361.63 678.95 1361.63 M 678.95 1365.47 691.05 1365.47 M 691.05 1369.31 678.95 1369.31 M 678.95 1373.15 691.05 1373.15 M 691.05 1376.99 678.95 1376.99 M 678.95 1380.83 691.05 1380.83 M 691.05 1384.67 678.95 1384.67 M 678.95 1388.51 691.05 1388.51 M 691.05 1392.35 678.95 1392.35 M 678.95 1396.19 691.05 1396.19 M 691.05 1400.03 678.95 1400.03 M 678.95 1403.87 691.05 1403.87 M 691.05 1407.71 678.95 1407.71 M 678.95 1411.55 691.05 1411.55 M 691.05 1415.39 678.95 1415.39 M 716.64 1415.55 716.64 1357.79 704.54 1357.79 704.54 1415.55 716.64 1415.55 M 716.64 1361.63 704.54 1361.63 M 704.54 1365.47 716.64 1365.47 M 716.64 1369.31 704.54 1369.31 M 704.54 1373.15 716.64 1373.15 M 716.64 1376.99 704.54 1376.99 M 704.54 1380.83 716.64 1380.83 M 716.64 1384.67 704.54 1384.67 M 704.54 1388.51 716.64 1388.51 M 716.64 1392.35 704.54 1392.35 M 704.54 1396.19 716.64 1396.19 M 716.64 1400.03 704.54 1400.03 M 704.54 1403.87 716.64 1403.87 M 716.64 1407.71 704.54 1407.71 M 704.54 1411.55 716.64 1411.55 M 716.64 1415.39 704.54 1415.39 M 742.23 1415.55 742.23 1357.79 730.13 1357.79 730.13 1415.55 742.23 1415.55 M 742.23 1361.63 730.13 1361.63 M 730.13 1365.47 742.23 1365.47 M 742.23 1369.31 730.13 1369.31 M 730.13 1373.15 742.23 1373.15 M 742.23 1376.99 730.13 1376.99 M 730.13 1380.83 742.23 1380.83 M 742.23 1384.67 730.13 1384.67 M 730.13 1388.51 742.23 1388.51 M 742.23 1392.35 730.13 1392.35 M 730.13 1396.19 742.23 1396.19 M 742.23 1400.03 730.13 1400.03 M 730.13 1403.87 742.23 1403.87 M 742.23 1407.71 730.13 1407.71 M 730.13 1411.55 742.23 1411.55 M 742.23 1415.39 730.13 1415.39 M 767.82 1415.55 767.82 1357.79 755.72 1357.79 755.72 1415.55 767.82 1415.55 M 767.82 1361.63 755.72 1361.63 M 755.72 1365.47 767.82 1365.47 M 767.82 1369.31 755.72 1369.31 M 755.72 1373.15 767.82 1373.15 M 767.82 1376.99 755.72 1376.99 M 755.72 1380.83 767.82 1380.83 M 767.82 1384.67 755.72 1384.67 M 755.72 1388.51 767.82 1388.51 M 767.82 1392.35 755.72 1392.35 M 755.72 1396.19 767.82 1396.19 M 767.82 1400.03 755.72 1400.03 M 755.72 1403.87 767.82 1403.87 M 767.82 1407.71 755.72 1407.71 M 755.72 1411.55 767.82 1411.55 M 767.82 1415.39 755.72 1415.39 M 793.41 1415.55 793.41 1357.79 781.31 1357.79 781.31 1415.55 793.41 1415.55 M 793.41 1361.63 781.31 1361.63 M 781.31 1365.47 793.41 1365.47 M 793.41 1369.31 781.31 1369.31 M 781.31 1373.15 793.41 1373.15 M 793.41 1376.99 781.31 1376.99 M 781.31 1380.83 793.41 1380.83 M 793.41 1384.67 781.31 1384.67 M 781.31 1388.51 793.41 1388.51 M 793.41 1392.35 781.31 1392.35 M 781.31 1396.19 793.41 1396.19 M 793.41 1400.03 781.31 1400.03 M 781.31 1403.87 793.41 1403.87 M 793.41 1407.71 781.31 1407.71 M 781.31 1411.55 793.41 1411.55 M 793.41 1415.39 781.31 1415.39 M 819 1415.55 819 1357.79 806.9 1357.79 806.9 1415.55 819 1415.55 M 819 1361.63 806.9 1361.63 M 806.9 1365.47 819 1365.47 M 819 1369.31 806.9 1369.31 M 806.9 1373.15 819 1373.15 M 819 1376.99 806.9 1376.99 M 806.9 1380.83 819 1380.83 M 819 1384.67 806.9 1384.67 M 806.9 1388.51 819 1388.51 M 819 1392.35 806.9 1392.35 M 806.9 1396.19 819 1396.19 M 819 1400.03 806.9 1400.03 M 806.9 1403.87 819 1403.87 M 819 1407.71 806.9 1407.71 M 806.9 1411.55 819 1411.55 M 819 1415.39 806.9 1415.39" fill="none" stroke-width="4.04"/></g></svg>