<svg version="1.1" xmlns="http://www.w3.org/2000/svg" xmlns:xlink="http://www.w3.org/1999/xlink" stroke-linecap="round" stroke-linejoin="round" stroke-width="0" fill-rule="evenodd" width="2.16536in" height="2.95276in" viewBox="286.18 286.18 2165.36 2952.76" id="YieDqHGHKKeB5b-kTTdt"><g transform="translate(0,3525.1200000000003) scale(1,-1)" fill="currentColor" stroke="currentColor"><path d="M 286.18 483.03 286.18 3042.09 286.24 3046.85 286.41 3051.6 286.7 3056.35 287.1 3061.09 287.62 3065.82 288.25 3070.53 288.99 3075.23 289.85 3079.91 290.82 3084.57 291.9 3089.2 293.09 3093.8 294.4 3098.38 295.81 3102.92 297.34 3107.43 298.97 3111.89 300.71 3116.32 302.56 3120.7 304.51 3125.04 306.57 3129.33 308.73 3133.57 310.99 3137.76 313.35 3141.89 315.81 3145.96 318.37 3149.97 321.03 3153.91 323.78 3157.8 326.62 3161.61 329.55 3165.35 332.57 3169.03 335.69 3172.63 338.88 3176.15 342.16 3179.59 345.53 3182.96 348.97 3186.24 352.49 3189.43 356.09 3192.55 359.77 3195.57 363.51 3198.5 367.32 3201.34 371.21 3204.09 375.15 3206.75 379.16 3209.31 383.23 3211.77 387.36 3214.13 391.55 3216.39 395.79 3218.55 400.08 3220.61 404.42 3222.56 408.8 3224.41 413.23 3226.15 417.69 3227.78 422.2 3229.31 426.74 3230.72 431.32 3232.03 435.92 3233.22 440.55 3234.3 445.21 3235.27 449.89 3236.13 454.59 3236.87 459.3 3237.5 464.03 3238.02 468.77 3238.42 473.52 3238.71 478.27 3238.88 483.03 3238.94 2254.69 3238.94 2259.45 3238.88 2264.2 3238.71 2268.95 3238.42 2273.69 3238.02 2278.42 3237.5 2283.13 3236.87 2287.83 3236.13 2292.51 3235.27 2297.17 3234.3 2301.8 3233.22 2306.4 3232.03 2310.98 3230.72 2315.52 3229.31 2320.03 3227.78 2324.49 3226.15 2328.92 3224.41 2333.3 3222.56 2337.64 3220.61 2341.93 3218.55 2346.17 3216.39 2350.36 3214.13 2354.49 3211.77 2358.56 3209.31 2362.57 3206.75 2366.51 3204.09 2370.4 3201.34 2374.21 3198.5 2377.95 3195.57 2381.63 3192.55 2385.23 3189.43 2388.75 3186.24 2392.19 3182.96 2395.56 3179.59 2398.84 3176.15 2402.03 3172.63 2405.15 3169.03 2408.17 3165.35 2411.1 3161.61 2413.94 3157.8 2416.69 3153.91 2419.35 3149.97 2421.91 3145.96 2424.37 3141.89 2426.73 3137.76 2428.99 3133.57 2431.15 3129.33 2433.21 3125.04 2435.16 3120.7 2437.01 3116.32 2438.75 3111.89 2440.38 3107.43 2441.91 3102.92 2443.32 3098.38 2444.63 3093.8 2445.82 3089.2 2446.9 3084.57 2447.87 3079.91 2448.73 3075.23 2449.47 3070.53 2450.1 3065.82 2450.62 3061.09 2451.02 3056.35 2451.31 3051.6 2451.48 3046.85 2451.54 3042.09 2451.54 483.03 2451.48 478.27 2451.31 473.52 2451.02 468.77 2450.62 464.03 2450.1 459.3 2449.47 454.59 2448.73 449.89 2447.87 445.21 2446.9 440.55 2445.82 435.92 2444.63 431.32 2443.32 426.74 2441.91 422.2 2440.38 417.69 2438.75 413.23 2437.01 408.8 2435.16 404.42 2433.21 400.08 2431.15 395.79 2428.99 391.55 2426.73 387.36 2424.37 383.23 2421.91 379.16 2419.35 375.15 2416.69 371.21 2413.94 367.32 2411.1 363.51 2408.17 359.77 2405.15 356.09 2402.03 352.49 2398.84 348.97 2395.56 345.53 2392.19 342.16 2388.75 338.88 2385.23 335.69 2381.63 332.57 2377.95 329.55 2374.21 326.62 2370.4 323.78 2366.51 321.03 2362.57 318.37 2358.56 315.81 2354.49 313.35 2350.36 310.99 2346.17 308.73 2341.93 306.57 2337.64 304.51 2333.3 302.56 2328.92 300.71 2324.49 298.97 2320.03 297.34 2315.52 295.81 2310.98 294.4 2306.4 293.09 2301.8 291.9 2297.17 290.82 2292.51 289.85 2287.83 288.99 2283.13 288.25 2278.42 287.62 2273.69 287.1 2268.95 286.7 2264.2 286.41 2259.45 286.24 2254.69 286.18 483.03 286.18 478.27 286.24 473.52 286.41 468.77 286.7 464.03 287.1 459.3 287.62 454.59 288.25 449.89 288.99 445.21 289.85 440.55 290.82 435.92 291.9 431.32 293.09 426.74 294.4 422.2 295.81 417.69 297.34 413.23 298.97 408.8 300.71 404.42 302.56 400.08 304.51 395.79 306.57 391.55 308.73 387.36 310.99 383.23 313.35 379.16 315.81 375.15 318.37 371.21 321.03 367.32 323.78 363.51 326.62 359.77 329.55 356.09 332.57 352.49 335.69 348.97 338.88 345.53 342.16 342.16 345.53 338.88 348.97 335.69 352.49 332.57 356.09 329.55 359.77 326.62 363.51 323.78 367.32 321.03 371.21 318.37 375.15 315.81 379.16 313.35 383.23 310.99 387.36 308.73 391.55 306.57 395.79 304.51 400.08 302.56 404.42 300.71 408.8 298.97 413.23 297.34 417.69 295.81 422.2 294.4 426.74 293.09 431.32 291.9 435.92 290.82 440.55 289.85 445.21 288.99 449.89 288.25 454.59 287.62 459.3 287.1 464.03 286.7 468.77 286.41 473.52 286.24 478.27 286.18 483.03 M 1454.88 3034.31 1454.9 3035.19 1454.96 3036.07 1455.06 3036.95 1455.2 3037.83 1455.37 3038.69 1455.59 3039.55 1455.84 3040.39 1456.14 3041.23 1456.46 3042.05 1456.83 3042.85 1457.23 3043.64 1457.67 3044.41 1458.14 3045.16 1458.64 3045.88 1459.18 3046.59 1459.74 3047.26 1460.34 3047.92 1460.96 3048.54 1461.62 3049.14 1462.29 3049.7 1463 3050.24 1463.72 3050.74 1464.47 3051.21 1465.24 3051.65 1466.03 3052.05 1466.83 3052.42 1467.65 3052.74 1468.49 3053.04 1469.33 3053.29 1470.19 3053.51 1471.05 3053.68 1471.93 3053.82 1472.81 3053.92 1473.69 3053.98 1474.57 3054 1475.45 3053.98 1476.33 3053.92 1477.21 3053.82 1478.09 3053.68 1478.95 3053.51 1479.81 3053.29 1480.65 3053.04 1481.49 3052.74 1482.31 3052.42 1483.11 3052.05 1483.9 3051.65 1484.67 3051.21 1485.42 3050.74 1486.14 3050.24 1486.85 3049.7 1487.52 3049.14 1488.18 3048.54 1488.8 3047.92 1489.4 3047.26 1489.96 3046.59 1490.5 3045.88 1491 3045.16 1491.47 3044.41 1491.91 3043.64 1492.31 3042.85 1492.68 3042.05 1493 3041.23 1493.3 3040.39 1493.55 3039.55 1493.77 3038.69 1493.94 3037.83 1494.08 3036.95 1494.18 3036.07 1494.24 3035.19 1494.26 3034.31 1494.24 3033.43 1494.18 3032.55 1494.08 3031.67 1493.94 3030.79 1493.77 3029.93 1493.55 3029.07 1493.3 3028.23 1493 3027.39 1492.68 3026.57 1492.31 3025.77 1491.91 3024.98 1491.47 3024.21 1491 3023.46 1490.5 3022.74 1489.96 3022.03 1489.4 3021.36 1488.8 3020.7 1488.18 3020.08 1487.52 3019.48 1486.85 3018.92 1486.14 3018.38 1485.42 3017.88 1484.67 3017.41 1483.9 3016.97 1483.11 3016.57 1482.31 3016.2 1481.49 3015.88 1480.65 3015.58 1479.81 3015.33 1478.95 3015.11 1478.09 3014.94 1477.21 3014.8 1476.33 3014.7 1475.45 3014.64 1474.57 3014.62 1473.69 3014.64 1472.81 3014.7 1471.93 3014.8 1471.05 3014.94 1470.19 3015.11 1469.33 3015.33 1468.49 3015.58 1467.65 3015.88 1466.83 3016.2 1466.03 3016.57 1465.24 3016.97 1464.47 3017.41 1463.72 3017.88 1463 3018.38 1462.29 3018.92 1461.62 3019.48 1460.96 3020.08 1460.34 3020.7 1459.74 3021.36 1459.18 3022.03 1458.64 3022.74 1458.14 3023.46 1457.67 3024.21 1457.23 3024.98 1456.83 3025.77 1456.46 3026.57 1456.14 3027.39 1455.84 3028.23 1455.59 3029.07 1455.37 3029.93 1455.2 3030.79 1455.06 3031.67 1454.96 3032.55 1454.9 3033.43 1454.88 3034.31 M 1628.11 3034.31 1628.13 3035.19 1628.19 3036.07 1628.29 3036.95 1628.43 3037.83 1628.6 3038.69 1628.82 3039.55 1629.07 3040.39 1629.37 3041.23 1629.69 3042.05 1630.06 3042.85 1630.46 3043.64 1630.9 3044.41 1631.37 3045.16 1631.87 3045.88 1632.41 3046.59 1632.97 3047.26 1633.57 3047.92 1634.19 3048.54 1634.85 3049.14 1635.52 3049.7 1636.23 3050.24 1636.95 3050.74 1637.7 3051.21 1638.47 3051.65 1639.26 3052.05 1640.06 3052.42 1640.88 3052.74 1641.72 3053.04 1642.56 3053.29 1643.42 3053.51 1644.28 3053.68 1645.16 3053.82 1646.04 3053.92 1646.92 3053.98 1647.8 3054 1648.68 3053.98 1649.56 3053.92 1650.44 3053.82 1651.32 3053.68 1652.18 3053.51 1653.04 3053.29 1653.88 3053.04 1654.72 3052.74 1655.54 3052.42 1656.34 3052.05 1657.13 3051.65 1657.9 3051.21 1658.65 3050.74 1659.37 3050.24 1660.08 3049.7 1660.75 3049.14 1661.41 3048.54 1662.03 3047.92 1662.63 3047.26 1663.19 3046.59 1663.73 3045.88 1664.23 3045.16 1664.7 3044.41 1665.14 3043.64 1665.54 3042.85 1665.91 3042.05 1666.23 3041.23 1666.53 3040.39 1666.78 3039.55 1667 3038.69 1667.17 3037.83 1667.31 3036.95 1667.41 3036.07 1667.47 3035.19 1667.49 3034.31 1667.47 3033.43 1667.41 3032.55 1667.31 3031.67 1667.17 3030.79 1667 3029.93 1666.78 3029.07 1666.53 3028.23 1666.23 3027.39 1665.91 3026.57 1665.54 3025.77 1665.14 3024.98 1664.7 3024.21 1664.23 3023.46 1663.73 3022.74 1663.19 3022.03 1662.63 3021.36 1662.03 3020.7 1661.41 3020.08 1660.75 3019.48 1660.08 3018.92 1659.37 3018.38 1658.65 3017.88 1657.9 3017.41 1657.13 3016.97 1656.34 3016.57 1655.54 3016.2 1654.72 3015.88 1653.88 3015.58 1653.04 3015.33 1652.18 3015.11 1651.32 3014.94 1650.44 3014.8 1649.56 3014.7 1648.68 3014.64 1647.8 3014.62 1646.92 3014.64 1646.04 3014.7 1645.16 3014.8 1644.28 3014.94 1643.42 3015.11 1642.56 3015.33 1641.72 3015.58 1640.88 3015.88 1640.06 3016.2 1639.26 3016.57 1638.47 3016.97 1637.7 3017.41 1636.95 3017.88 1636.23 3018.38 1635.52 3018.92 1634.85 3019.48 1634.19 3020.08 1633.57 3020.7 1632.97 3021.36 1632.41 3022.03 1631.87 3022.74 1631.37 3023.46 1630.9 3024.21 1630.46 3024.98 1630.06 3025.77 1629.69 3026.57 1629.37 3027.39 1629.07 3028.23 1628.82 3029.07 1628.6 3029.93 1628.43 3030.79 1628.29 3031.67 1628.19 3032.55 1628.13 3033.43 1628.11 3034.31" fill="none" stroke-width="0"/></g></svg>