<svg version="1.1" xmlns="http://www.w3.org/2000/svg" xmlns:xlink="http://www.w3.org/1999/xlink" stroke-linecap="round" stroke-linejoin="round" stroke-width="0" fill-rule="evenodd" width="20.556075in" height="27.54in" viewBox="3354.91 3591.8 20556.075 27540" id="F_ddiu8XNVSk0GS-ZFqj"><defs><circle cx="0" cy="0" r="6.89" id="F_ddiu8XNVSk0GS-ZFqj_pad-1"/><circle cx="0" cy="0" r="10.825" id="F_ddiu8XNVSk0GS-ZFqj_pad-2"/><circle cx="0" cy="0" r="11.81" id="F_ddiu8XNVSk0GS-ZFqj_pad-3"/><circle cx="0" cy="0" r="15.75" id="F_ddiu8XNVSk0GS-ZFqj_pad-4"/><circle cx="0" cy="0" r="16" id="F_ddiu8XNVSk0GS-ZFqj_pad-5"/><circle cx="0" cy="0" r="17.715" id="F_ddiu8XNVSk0GS-ZFqj_pad-6"/><circle cx="0" cy="0" r="19.685" id="F_ddiu8XNVSk0GS-ZFqj_pad-7"/><circle cx="0" cy="0" r="20" id="F_ddiu8XNVSk0GS-ZFqj_pad-8"/><circle cx="0" cy="0" r="21.655" id="F_ddiu8XNVSk0GS-ZFqj_pad-9"/><circle cx="0" cy="0" r="59.055" id="F_ddiu8XNVSk0GS-ZFqj_pad-10"/></defs><g transform="translate(0,34723.6) scale(1,-1)" fill="currentColor" stroke="currentColor"><use xlink:href="#F_ddiu8XNVSk0GS-ZFqj_pad-1" x="7486.8" y="4361.8"/><use xlink:href="#F_ddiu8XNVSk0GS-ZFqj_pad-1" x="8236.8" y="4361.8"/><use xlink:href="#F_ddiu8XNVSk0GS-ZFqj_pad-1" x="10486.8" y="4361.8"/><use xlink:href="#F_ddiu8XNVSk0GS-ZFqj_pad-1" x="11236.8" y="4361.8"/><use xlink:href="#F_ddiu8XNVSk0GS-ZFqj_pad-1" x="12361.8" y="10736.8"/><use xlink:href="#F_ddiu8XNVSk0GS-ZFqj_pad-1" x="13111.8" y="10736.8"/><use xlink:href="#F_ddiu8XNVSk0GS-ZFqj_pad-1" x="9486.8" y="12111.8"/><use xlink:href="#F_ddiu8XNVSk0GS-ZFqj_pad-1" x="9486.8" y="12611.8"/><use xlink:href="#F_ddiu8XNVSk0GS-ZFqj_pad-1" x="9486.8" y="13111.8"/><use xlink:href="#F_ddiu8XNVSk0GS-ZFqj_pad-1" x="7611.8" y="12111.8"/><use xlink:href="#F_ddiu8XNVSk0GS-ZFqj_pad-1" x="5861.8" y="12111.8"/><use xlink:href="#F_ddiu8XNVSk0GS-ZFqj_pad-1" x="5111.8" y="13861.8"/><use xlink:href="#F_ddiu8XNVSk0GS-ZFqj_pad-1" x="6486.8" y="15361.8"/><use xlink:href="#F_ddiu8XNVSk0GS-ZFqj_pad-1" x="6486.8" y="16611.8"/><use xlink:href="#F_ddiu8XNVSk0GS-ZFqj_pad-1" x="6486.8" y="17861.8"/><use xlink:href="#F_ddiu8XNVSk0GS-ZFqj_pad-1" x="6986.8" y="18361.8"/><use xlink:href="#F_ddiu8XNVSk0GS-ZFqj_pad-1" x="6486.8" y="19111.8"/><use xlink:href="#F_ddiu8XNVSk0GS-ZFqj_pad-1" x="8861.8" y="19861.8"/><use xlink:href="#F_ddiu8XNVSk0GS-ZFqj_pad-1" x="8861.8" y="20236.8"/><use xlink:href="#F_ddiu8XNVSk0GS-ZFqj_pad-1" x="8861.8" y="20611.8"/><use xlink:href="#F_ddiu8XNVSk0GS-ZFqj_pad-1" x="9861.8" y="23706.3"/><use xlink:href="#F_ddiu8XNVSk0GS-ZFqj_pad-1" x="3361.8" y="10111.8"/><use xlink:href="#F_ddiu8XNVSk0GS-ZFqj_pad-1" x="17107.9" y="7111.8"/><use xlink:href="#F_ddiu8XNVSk0GS-ZFqj_pad-1" x="18527.2" y="7111.8"/><use xlink:href="#F_ddiu8XNVSk0GS-ZFqj_pad-1" x="20111.8" y="6111.8"/><use xlink:href="#F_ddiu8XNVSk0GS-ZFqj_pad-2" x="5111.8" y="11736.8"/><use xlink:href="#F_ddiu8XNVSk0GS-ZFqj_pad-2" x="5111.8" y="21152.2"/><use xlink:href="#F_ddiu8XNVSk0GS-ZFqj_pad-3" x="6236.8" y="26236.8"/><use xlink:href="#F_ddiu8XNVSk0GS-ZFqj_pad-4" x="7468.1" y="29861.8"/><use xlink:href="#F_ddiu8XNVSk0GS-ZFqj_pad-4" x="8255.5" y="29861.8"/><use xlink:href="#F_ddiu8XNVSk0GS-ZFqj_pad-4" x="8255.5" y="5361.8"/><use xlink:href="#F_ddiu8XNVSk0GS-ZFqj_pad-4" x="7468.1" y="5361.8"/><use xlink:href="#F_ddiu8XNVSk0GS-ZFqj_pad-4" x="10468.1" y="5361.8"/><use xlink:href="#F_ddiu8XNVSk0GS-ZFqj_pad-4" x="11255.5" y="5361.8"/><use xlink:href="#F_ddiu8XNVSk0GS-ZFqj_pad-5" x="21736.8" y="8361.8"/><use xlink:href="#F_ddiu8XNVSk0GS-ZFqj_pad-5" x="22736.8" y="7361.8"/><use xlink:href="#F_ddiu8XNVSk0GS-ZFqj_pad-5" x="22736.8" y="9361.8"/><use xlink:href="#F_ddiu8XNVSk0GS-ZFqj_pad-5" x="22736.8" y="10736.8"/><use xlink:href="#F_ddiu8XNVSk0GS-ZFqj_pad-5" x="21736.8" y="11736.8"/><use xlink:href="#F_ddiu8XNVSk0GS-ZFqj_pad-5" x="22736.8" y="12736.8"/><use xlink:href="#F_ddiu8XNVSk0GS-ZFqj_pad-5" x="22736.8" y="14111.8"/><use xlink:href="#F_ddiu8XNVSk0GS-ZFqj_pad-5" x="21736.8" y="15111.8"/><use xlink:href="#F_ddiu8XNVSk0GS-ZFqj_pad-5" x="22736.8" y="16111.8"/><use xlink:href="#F_ddiu8XNVSk0GS-ZFqj_pad-6" x="20107.9" y="9911"/><use xlink:href="#F_ddiu8XNVSk0GS-ZFqj_pad-6" x="19107.9" y="9911"/><use xlink:href="#F_ddiu8XNVSk0GS-ZFqj_pad-6" x="18107.9" y="9911"/><use xlink:href="#F_ddiu8XNVSk0GS-ZFqj_pad-6" x="17107.9" y="9911"/><use xlink:href="#F_ddiu8XNVSk0GS-ZFqj_pad-6" x="16107.9" y="9911"/><use xlink:href="#F_ddiu8XNVSk0GS-ZFqj_pad-6" x="15107.9" y="9911"/><use xlink:href="#F_ddiu8XNVSk0GS-ZFqj_pad-6" x="14107.9" y="9911"/><use xlink:href="#F_ddiu8XNVSk0GS-ZFqj_pad-6" x="13107.9" y="9911"/><use xlink:href="#F_ddiu8XNVSk0GS-ZFqj_pad-6" x="10861.8" y="10111.8"/><use xlink:href="#F_ddiu8XNVSk0GS-ZFqj_pad-6" x="9861.8" y="10111.8"/><use xlink:href="#F_ddiu8XNVSk0GS-ZFqj_pad-6" x="8861.8" y="10111.8"/><use xlink:href="#F_ddiu8XNVSk0GS-ZFqj_pad-6" x="7861.8" y="10111.8"/><use xlink:href="#F_ddiu8XNVSk0GS-ZFqj_pad-6" x="6861.8" y="10111.8"/><use xlink:href="#F_ddiu8XNVSk0GS-ZFqj_pad-6" x="5861.8" y="10111.8"/><use xlink:href="#F_ddiu8XNVSk0GS-ZFqj_pad-6" x="5861.8" y="7111.8"/><use xlink:href="#F_ddiu8XNVSk0GS-ZFqj_pad-6" x="6861.8" y="7111.8"/><use xlink:href="#F_ddiu8XNVSk0GS-ZFqj_pad-6" x="7861.8" y="7111.8"/><use xlink:href="#F_ddiu8XNVSk0GS-ZFqj_pad-6" x="8861.8" y="7111.8"/><use xlink:href="#F_ddiu8XNVSk0GS-ZFqj_pad-6" x="9861.8" y="7111.8"/><use xlink:href="#F_ddiu8XNVSk0GS-ZFqj_pad-6" x="10861.8" y="7111.8"/><use xlink:href="#F_ddiu8XNVSk0GS-ZFqj_pad-7" x="21332.3" y="19861.8"/><use xlink:href="#F_ddiu8XNVSk0GS-ZFqj_pad-7" x="21332.3" y="22361.8"/><use xlink:href="#F_ddiu8XNVSk0GS-ZFqj_pad-7" x="21332.3" y="24861.8"/><use xlink:href="#F_ddiu8XNVSk0GS-ZFqj_pad-7" x="21332.3" y="27361.8"/><use xlink:href="#F_ddiu8XNVSk0GS-ZFqj_pad-7" x="23891.3" y="27361.8"/><use xlink:href="#F_ddiu8XNVSk0GS-ZFqj_pad-7" x="23891.3" y="24861.8"/><use xlink:href="#F_ddiu8XNVSk0GS-ZFqj_pad-7" x="23891.3" y="22361.8"/><use xlink:href="#F_ddiu8XNVSk0GS-ZFqj_pad-7" x="23891.3" y="19861.8"/><use xlink:href="#F_ddiu8XNVSk0GS-ZFqj_pad-7" x="16478" y="30343.1"/><use xlink:href="#F_ddiu8XNVSk0GS-ZFqj_pad-7" x="14745.7" y="30343.1"/><use xlink:href="#F_ddiu8XNVSk0GS-ZFqj_pad-8" x="11111.8" y="30111.8"/><use xlink:href="#F_ddiu8XNVSk0GS-ZFqj_pad-8" x="11111.8" y="29111.8"/><use xlink:href="#F_ddiu8XNVSk0GS-ZFqj_pad-8" x="11111.8" y="28111.8"/><use xlink:href="#F_ddiu8XNVSk0GS-ZFqj_pad-8" x="11111.8" y="27111.8"/><use xlink:href="#F_ddiu8XNVSk0GS-ZFqj_pad-8" x="11111.8" y="26111.8"/><use xlink:href="#F_ddiu8XNVSk0GS-ZFqj_pad-8" x="11111.8" y="25111.8"/><use xlink:href="#F_ddiu8XNVSk0GS-ZFqj_pad-8" x="11111.8" y="24111.8"/><use xlink:href="#F_ddiu8XNVSk0GS-ZFqj_pad-8" x="11111.8" y="23111.8"/><use xlink:href="#F_ddiu8XNVSk0GS-ZFqj_pad-8" x="11111.8" y="22111.8"/><use xlink:href="#F_ddiu8XNVSk0GS-ZFqj_pad-8" x="11111.8" y="21111.8"/><use xlink:href="#F_ddiu8XNVSk0GS-ZFqj_pad-8" x="11111.8" y="20111.8"/><use xlink:href="#F_ddiu8XNVSk0GS-ZFqj_pad-8" x="11111.8" y="19111.8"/><use xlink:href="#F_ddiu8XNVSk0GS-ZFqj_pad-8" x="11111.8" y="18111.8"/><use xlink:href="#F_ddiu8XNVSk0GS-ZFqj_pad-8" x="11111.8" y="17111.8"/><use xlink:href="#F_ddiu8XNVSk0GS-ZFqj_pad-8" x="11111.8" y="16111.8"/><use xlink:href="#F_ddiu8XNVSk0GS-ZFqj_pad-8" x="11111.8" y="15111.8"/><use xlink:href="#F_ddiu8XNVSk0GS-ZFqj_pad-8" x="11111.8" y="14111.8"/><use xlink:href="#F_ddiu8XNVSk0GS-ZFqj_pad-8" x="11111.8" y="13111.8"/><use xlink:href="#F_ddiu8XNVSk0GS-ZFqj_pad-8" x="11111.8" y="12111.8"/><use xlink:href="#F_ddiu8XNVSk0GS-ZFqj_pad-8" x="15111.8" y="3611.8"/><use xlink:href="#F_ddiu8XNVSk0GS-ZFqj_pad-8" x="16111.8" y="3611.8"/><use xlink:href="#F_ddiu8XNVSk0GS-ZFqj_pad-8" x="17111.8" y="3611.8"/><use xlink:href="#F_ddiu8XNVSk0GS-ZFqj_pad-8" x="18111.8" y="3611.8"/><use xlink:href="#F_ddiu8XNVSk0GS-ZFqj_pad-8" x="19111.8" y="3611.8"/><use xlink:href="#F_ddiu8XNVSk0GS-ZFqj_pad-8" x="20111.8" y="3611.8"/><use xlink:href="#F_ddiu8XNVSk0GS-ZFqj_pad-8" x="20111.8" y="12111.8"/><use xlink:href="#F_ddiu8XNVSk0GS-ZFqj_pad-8" x="20111.8" y="13111.8"/><use xlink:href="#F_ddiu8XNVSk0GS-ZFqj_pad-8" x="20111.8" y="14111.8"/><use xlink:href="#F_ddiu8XNVSk0GS-ZFqj_pad-8" x="20111.8" y="15111.8"/><use xlink:href="#F_ddiu8XNVSk0GS-ZFqj_pad-8" x="20111.8" y="16111.8"/><use xlink:href="#F_ddiu8XNVSk0GS-ZFqj_pad-8" x="20111.8" y="17111.8"/><use xlink:href="#F_ddiu8XNVSk0GS-ZFqj_pad-8" x="20111.8" y="18111.8"/><use xlink:href="#F_ddiu8XNVSk0GS-ZFqj_pad-8" x="20111.8" y="19111.8"/><use xlink:href="#F_ddiu8XNVSk0GS-ZFqj_pad-8" x="20111.8" y="20111.8"/><use xlink:href="#F_ddiu8XNVSk0GS-ZFqj_pad-8" x="20111.8" y="21111.8"/><use xlink:href="#F_ddiu8XNVSk0GS-ZFqj_pad-8" x="20111.8" y="22111.8"/><use xlink:href="#F_ddiu8XNVSk0GS-ZFqj_pad-8" x="20111.8" y="23111.8"/><use xlink:href="#F_ddiu8XNVSk0GS-ZFqj_pad-8" x="20111.8" y="24111.8"/><use xlink:href="#F_ddiu8XNVSk0GS-ZFqj_pad-8" x="20111.8" y="25111.8"/><use xlink:href="#F_ddiu8XNVSk0GS-ZFqj_pad-8" x="20111.8" y="26111.8"/><use xlink:href="#F_ddiu8XNVSk0GS-ZFqj_pad-8" x="20111.8" y="27111.8"/><use xlink:href="#F_ddiu8XNVSk0GS-ZFqj_pad-8" x="20111.8" y="28111.8"/><use xlink:href="#F_ddiu8XNVSk0GS-ZFqj_pad-8" x="20111.8" y="29111.8"/><use xlink:href="#F_ddiu8XNVSk0GS-ZFqj_pad-8" x="20111.8" y="30111.8"/><use xlink:href="#F_ddiu8XNVSk0GS-ZFqj_pad-8" x="20111.8" y="31111.8"/><use xlink:href="#F_ddiu8XNVSk0GS-ZFqj_pad-8" x="11111.8" y="31111.8"/><use xlink:href="#F_ddiu8XNVSk0GS-ZFqj_pad-9" x="7861.8" y="28111.8"/><use xlink:href="#F_ddiu8XNVSk0GS-ZFqj_pad-9" x="7861.8" y="27111.8"/><use xlink:href="#F_ddiu8XNVSk0GS-ZFqj_pad-9" x="7861.8" y="26111.8"/><use xlink:href="#F_ddiu8XNVSk0GS-ZFqj_pad-10" x="4830.3" y="4830.3"/><use xlink:href="#F_ddiu8XNVSk0GS-ZFqj_pad-10" x="22546.9" y="4830.3"/><use xlink:href="#F_ddiu8XNVSk0GS-ZFqj_pad-10" x="22546.9" y="30420.9"/><use xlink:href="#F_ddiu8XNVSk0GS-ZFqj_pad-10" x="4830.3" y="30420.9"/></g></svg>